<?xml version="1.0" encoding="UTF-8"?>
<svg width="24px" height="24px" viewBox="0 0 24 24" version="1.1" xmlns="http://www.w3.org/2000/svg" xmlns:xlink="http://www.w3.org/1999/xlink">
    <title>50F09F38-E251-4825-B568-D0399631D2CE</title>
    <g id="Page-1" stroke="none" stroke-width="1" fill="none" fill-rule="evenodd">
        <g id="0-StyleGuide" transform="translate(-1154.000000, -1676.000000)">
            <rect x="0" y="0" width="1440" height="3371"></rect>
            <rect id="Rectangle" stroke="#979797" x="1023" y="1555" width="200" height="200"></rect>
            <g id="Icon/Caret-Down" transform="translate(1154.000000, 1676.000000)" fill="#000000" fill-rule="nonzero">
                <path d="M14.7336435,0 C10.1590579,0 6.44053504,3.84545455 6.44053504,8.53636364 C6.44053504,10.5272727 7.10933411,12.3272727 8.20616458,13.8 L0.341087525,21.9272727 C-0.113695842,22.4181818 -0.113695842,23.1818182 0.341087525,23.6454545 C0.58185519,23.8909091 0.876126781,24 1.17039837,24 C1.49142192,24 1.78569352,23.8909091 2.02646118,23.6454545 L9.89153824,15.5181818 C11.2558883,16.5272727 12.91451,17.1 14.7068915,17.1 C19.2814772,17.1 23,13.2545455 23,8.56363636 C23,3.87272727 19.3082291,0 14.7336435,0 Z M14.7336435,14.9454545 C11.3361442,14.9454545 8.58069206,12.0818182 8.58069206,8.56363636 C8.58069206,5.04545455 11.3361442,2.18181818 14.7336435,2.18181818 C18.1311428,2.18181818 20.8865949,5.04545455 20.8865949,8.56363636 C20.8865949,12.0818182 18.1311428,14.9454545 14.7336435,14.9454545 Z M18.8801977,8.67272727 C18.8266938,9.13636364 18.4254144,9.49090909 17.970631,9.49090909 C17.9171271,9.49090909 17.8903751,9.49090909 17.8368712,9.49090909 C17.3285839,9.40909091 16.9808084,8.94545455 17.0343123,8.42727273 C17.221576,7.00909091 15.6699622,6.27272727 15.5897063,6.24545455 C15.1349229,6.02727273 14.9209072,5.45454545 15.1349229,4.99090909 C15.3489386,4.52727273 15.8839779,4.30909091 16.3655132,4.5 C16.4725211,4.52727273 19.2547252,5.83636364 18.8801977,8.67272727 Z M16.9273044,10.7454545 C17.1145682,10.9363636 17.248328,11.2363636 17.248328,11.5090909 C17.248328,11.8090909 17.1413202,12.0818182 16.9273044,12.2727273 C16.7400407,12.4636364 16.4457691,12.6 16.1782495,12.6 C15.9107299,12.6 15.6164583,12.4909091 15.4291945,12.2727273 C15.2419308,12.0818182 15.108171,11.7818182 15.108171,11.5090909 C15.108171,11.2363636 15.2151788,10.9363636 15.4291945,10.7454545 C15.6164583,10.5545455 15.9107299,10.4181818 16.1782495,10.4181818 C16.4457691,10.4181818 16.7132887,10.5272727 16.9273044,10.7454545 Z" id="search"></path>
            </g>
        </g>
    </g>
</svg>