<?xml version="1.0" encoding="UTF-8"?>
<svg width="24px" height="24px" viewBox="0 0 24 24" version="1.1" xmlns="http://www.w3.org/2000/svg" xmlns:xlink="http://www.w3.org/1999/xlink">
    <title>B6F9CFFF-4E7E-4FE6-BFAF-DD9FC54CBEB5</title>
    <g id="Page-1" stroke="none" stroke-width="1" fill="none" fill-rule="evenodd">
        <g id="0-StyleGuide" transform="translate(-1070.000000, -1676.000000)">
            <rect  x="0" y="0" width="1440" height="3371"></rect>
            <rect id="Rectangle" stroke="#979797" x="1023" y="1555" width="200" height="200"></rect>
            <g id="addToDatabase" transform="translate(1070.000000, 1676.000000)" fill="#ffeeb4" fill-rule="nonzero">
                <path d="M11.4285714,11.5891025 L11.4285714,5.8645519 L16.6339431,9.33479966 L15.3660569,11.2366289 L13.7142857,10.1354481 L13.7142857,14.2857143 C13.7142857,15.9467738 12.119508,17.1428571 10.2857143,17.1428571 C8.45192057,17.1428571 6.85714286,15.9467738 6.85714286,14.2857143 C6.85714286,12.6246547 8.45192057,11.4285714 10.2857143,11.4285714 C10.6824283,11.4285714 11.0679563,11.4845493 11.4285714,11.5891025 Z M19.4285714,21.7142857 L17.1428571,21.7142857 L17.1428571,19.4285714 L19.4285714,19.4285714 L19.4285714,17.1428571 L21.7142857,17.1428571 L21.7142857,19.4285714 L24,19.4285714 L24,21.7142857 L21.7142857,21.7142857 L21.7142857,24 L19.4285714,24 L19.4285714,21.7142857 Z M14.8571429,20.5714286 L14.8571429,22.8571429 L2.28571429,22.8571429 C1.02334914,22.8571429 0,21.8337937 0,20.5714286 L0,2.28571429 C0,1.02334914 1.02334914,0 2.28571429,0 L20.5714286,0 C21.8337937,0 22.8571429,1.02334914 22.8571429,2.28571429 L22.8571429,13.7142857 L20.5714286,13.7142857 L20.5714286,2.28571429 L2.28571429,2.28571429 L2.28571429,20.5714286 L14.8571429,20.5714286 Z M10.2857143,14.8571429 C10.9766509,14.8571429 11.4285714,14.5182024 11.4285714,14.2857143 C11.4285714,14.0532262 10.9766509,13.7142857 10.2857143,13.7142857 C9.59477771,13.7142857 9.14285714,14.0532262 9.14285714,14.2857143 C9.14285714,14.5182024 9.59477771,14.8571429 10.2857143,14.8571429 Z" id="Shape"></path>
            </g>
        </g>
    </g>
</svg>