<?xml version="1.0" encoding="UTF-8"?>
<svg width="320px" height="320px" viewBox="0 0 320 320" version="1.1" xmlns="http://www.w3.org/2000/svg" xmlns:xlink="http://www.w3.org/1999/xlink">
    <title>424DFE73-5C0B-4626-8DE4-240F89C56F32</title>
    <g id="Page-1" stroke="none" stroke-width="1" fill="none" fill-rule="evenodd">
        <g id="2.0-SRP" transform="translate(-91.000000, -332.000000)">
            <g id="PlayerInfo" transform="translate(90.000000, 235.000000)">
                <g id="PlayerPlaceholder" transform="translate(1.000000, 97.000000)">
                    <rect id="Rectangle" fill="#FFC600" x="0" y="0" width="320" height="320"></rect>
                    <g id="trumpet" transform="translate(50.000000, 47.000000)" fill="#000000" fill-rule="nonzero">
                        <path d="M216.134202,61.6207057 L158.359618,3.86442962 C153.206174,-1.28726427 144.863862,-1.28902207 139.709978,3.86442962 C134.945581,8.62720864 134.597416,16.0869036 138.599985,21.2438709 L139.996598,33.8346055 C142.624094,57.4472316 130.26163,70.9533444 112.665274,88.5911833 L109.553338,85.4803038 C105.416691,81.3542905 99.3572281,80.60107 94.5453537,82.9064344 L87.7983549,76.1639248 L90.9067748,73.0574398 C92.6242966,71.3422593 92.6251758,68.5592108 90.9089728,66.8422724 C89.1923303,65.1253341 86.4087756,65.1248947 84.6916935,66.8400752 C80.5361436,70.9933345 76.8843766,74.6421031 72.2536179,79.2695309 C70.5369753,80.9855904 70.5369753,83.7686389 72.2536179,85.4851377 C73.9707001,87.2011972 76.7542547,87.2007577 78.4708973,85.4851377 L81.5797568,82.3786527 L88.3271951,89.1216017 C86.0293998,93.9221736 86.7701278,99.9962769 90.9067748,104.132398 L94.0138759,107.238443 L87.7961569,113.45405 L84.6908143,110.349762 C80.553288,106.202216 74.465691,105.471407 69.6722798,107.765785 L62.9279186,101.025913 L66.0363385,97.9194275 C67.7538603,96.204247 67.7547395,93.4211985 66.0385365,91.7042601 C64.3223336,89.9877613 61.5383393,89.9864429 59.8212572,91.7020629 C55.620868,95.8997068 51.9827287,99.5348524 47.3836212,104.131079 C45.6669786,105.847139 45.666539,108.629748 47.3836212,110.346686 C49.1007034,112.062745 51.884258,112.062745 53.6009006,110.346686 L56.7097601,107.240201 L63.4629133,113.988423 C61.1281914,118.888751 61.9845345,124.941321 66.0372177,128.993946 L69.1443188,132.099991 L62.9270394,138.315159 L59.8129047,135.202521 C55.6749389,131.076948 49.6163556,130.325485 44.8057999,132.629531 L38.0579219,125.883945 L41.1689794,122.773944 C42.8851824,121.057446 42.8838636,118.274397 41.1667814,116.558338 C39.4492597,114.843597 36.6652654,114.844476 34.9495021,116.560974 L22.5145037,128.992627 C20.7969819,130.708247 20.7961027,133.491296 22.5123057,135.208234 C24.2280691,136.924294 27.0111841,136.92693 28.7295851,135.210871 L31.8406426,132.10087 L38.5933562,138.85129 C36.2603928,143.750299 37.1162962,149.80243 41.1667814,153.856812 L44.2743221,156.963297 L18.876804,182.352188 C14.0759196,180.053855 8.00370863,180.793452 3.864424,184.930891 C-1.28770173,190.080827 -1.28902054,198.418547 3.8657428,203.571999 L16.2985431,216.00497 C21.4519877,221.156664 29.7986951,221.158422 34.9525793,216.00497 C39.0988975,211.86006 39.8242395,205.781123 37.5317193,200.993735 L44.6273219,193.900103 C44.5376432,201.904719 47.5313272,209.935701 53.6009006,216.00541 C65.6006938,227.996292 85.1247006,228.000248 97.1236146,216.00497 L100.231155,212.898485 L103.338696,216.00497 C108.49214,221.156664 116.838848,221.158422 121.992732,216.00497 C127.145737,210.853716 127.149254,202.511601 121.991853,197.355953 L118.883873,194.249028 L125.100273,188.036937 L128.208693,191.144301 C133.347191,196.281053 141.71412,196.286766 146.856574,191.146059 C152.014855,185.995683 152.01969,177.649614 146.858333,172.496162 L143.751232,169.390117 L149.96983,163.175828 L153.07781,166.282753 C158.219385,171.422142 166.585435,171.423021 171.727011,166.282753 C176.879576,161.131938 176.882653,152.793339 171.728329,147.640327 L168.618591,144.529447 L171.727011,141.421644 C183.75274,129.399999 183.754059,109.940632 171.727011,97.9172302 C166.208697,92.4007913 159.101225,89.4063665 151.856598,88.9598834 C161.475072,82.230118 171.993409,78.4051292 186.154282,79.9783668 L198.747976,81.3745053 C203.904058,85.3721986 211.367167,85.0294262 216.133323,80.2648894 C221.288526,75.1118771 221.288966,66.7741574 216.134202,61.6207057 Z M100.232034,113.45361 L106.447995,119.667459 L100.231595,125.884385 L94.0143155,119.669217 L100.232034,113.45361 Z M75.3620378,138.315159 L81.5810756,144.532084 L75.3633566,150.745933 L69.145198,144.529887 L75.3620378,138.315159 Z M87.7987945,150.746812 L94.0147551,156.960661 L87.7983549,163.174949 L81.5810756,156.960221 L87.7987945,150.746812 Z M28.7352999,209.788924 C27.0182177,211.505423 24.2342235,211.506741 22.5162621,209.789363 L10.0830222,197.356392 C8.3655004,195.639014 8.3650608,192.861679 10.0830222,191.142982 C11.8018628,189.425165 14.5779442,189.424286 16.2976639,191.142543 C16.2981035,191.142982 16.2985431,191.143422 16.2989827,191.143861 L28.7335415,203.568923 C28.7344207,203.569802 28.7348603,203.570241 28.7357395,203.57112 C30.4532613,205.289377 30.4537009,208.071546 28.7352999,209.788924 Z M31.8432802,194.249467 L25.624682,188.035179 L50.4929203,163.175389 L56.7080017,169.388359 L53.5894709,172.506269 C53.5239704,172.571748 53.4589094,172.638105 53.3934088,172.70666 L31.8432802,194.249467 Z M90.9067748,209.788924 C82.3371896,218.356037 68.3904028,218.355159 59.81818,209.789803 C51.3272833,201.298275 51.2635411,187.426978 59.6717928,178.860304 L62.9283582,175.607042 L69.1447584,181.82133 L66.0389761,184.926057 C60.889488,190.067204 60.8846524,198.426897 66.0372177,203.57112 C71.1836286,208.715783 79.5404469,208.723253 84.6868578,203.57112 L87.7943985,200.464635 L94.0143155,206.682439 L90.9067748,209.788924 Z M72.2544971,191.143422 L75.3620378,188.036937 L81.5775588,194.250346 L78.4682597,197.358589 C76.7608487,199.067617 73.9707001,199.072012 72.2527387,197.354634 C70.5466465,195.650879 70.5365357,192.859042 72.2544971,191.143422 Z M115.776332,209.788924 C114.058371,211.506302 111.274816,211.506302 109.556855,209.788924 C88.2647718,188.504074 60.5043974,160.75313 47.387138,147.640766 C45.6726934,145.924707 45.6718142,143.134188 47.3809836,141.425159 C49.1147706,139.695916 51.8824996,139.707782 53.6017798,141.421644 C64.7707268,152.586797 98.5246235,186.329666 109.555975,197.357271 C114.588969,202.385039 115.674784,203.469606 115.768859,203.56321 C115.702039,203.496413 115.198696,202.99368 115.776772,203.57068 C117.494733,205.289377 117.494733,208.071546 115.776332,209.788924 Z M94.0156343,169.389677 L100.232034,163.175389 L106.447995,169.389238 L100.232914,175.604405 L94.0156343,169.389677 Z M112.667033,188.033861 L106.450193,181.819572 L112.664835,175.604844 L118.883873,181.82177 L112.667033,188.033861 Z M140.641933,184.928255 C138.928367,186.640798 136.139537,186.641677 134.426412,184.928255 C125.078293,175.583311 80.466247,130.987299 72.2549367,122.778339 C70.5404921,121.064037 70.5404921,118.274397 72.2588931,116.55658 C73.9452032,114.866448 76.731835,114.818108 78.4704577,116.560535 C90.5041001,128.59009 122.423541,160.498687 134.425972,172.496602 L140.64457,178.713527 C142.354179,180.420797 142.372642,183.20033 140.641933,184.928255 Z M112.665274,138.313401 L106.448435,132.098673 L112.664835,125.881748 L118.883873,132.098673 L112.665274,138.313401 Z M125.100712,138.31428 L131.317552,144.529008 L125.101152,150.745933 L118.882114,144.529008 L125.100712,138.31428 Z M137.534832,163.17451 L131.318431,156.960221 L137.534832,150.743296 L143.753869,156.960221 L137.534832,163.17451 Z M165.51105,160.067146 C163.797924,161.780129 161.009534,161.780129 159.295529,160.067146 C156.311956,157.084586 99.6851706,100.477037 97.1240542,97.9167908 C95.4008176,96.1941396 95.4126868,93.4106516 97.1200978,91.7029418 C97.1214166,91.7016234 97.123175,91.7003051 97.1244938,91.6989867 C98.8789421,89.9543629 101.645352,90.0101733 103.338256,91.6981078 C106.796599,95.1557149 162.995213,151.338753 165.51105,153.854176 C167.228572,155.571114 167.229451,158.349329 165.51105,160.067146 Z M143.751232,119.666581 L146.856574,116.562293 C148.572777,114.849749 151.364684,114.84931 153.07825,116.560535 C154.792694,118.274397 154.792694,121.064037 153.07825,122.7779 L149.970709,125.884385 L143.751232,119.666581 Z M165.51105,104.131958 C174.100417,112.717968 174.101736,126.618709 165.51105,135.206037 L162.403509,138.312522 L156.187988,132.099112 L159.295529,128.992627 C164.438423,123.851041 164.438423,115.486075 159.293771,110.34317 C154.151756,105.209055 145.784827,105.208615 140.641493,110.344928 L137.533952,113.451413 L131.32019,107.239761 C131.483721,107.076725 131.649891,106.910173 131.812983,106.748015 C132.990235,105.575997 134.154738,104.424633 135.31045,103.294802 C143.994771,95.5090341 157.246548,95.8693847 165.51105,104.131958 Z M209.917802,74.0484037 C208.20028,75.765342 205.421122,75.7662209 203.701841,74.0479642 L187.24669,57.6027976 C185.530048,55.8871776 182.745614,55.887617 181.029411,57.6036765 C179.312768,59.3201753 179.313208,62.1027844 181.029851,63.8192833 L188.623082,71.408177 L187.124921,71.2420642 C175.284263,69.9267849 164.664378,71.8151094 154.659056,77.0129458 C145.76988,81.6311451 138.075981,88.3086158 129.261537,96.9139617 C128.892272,97.2514607 128.536635,97.5889597 128.206055,97.9194275 L125.59922,100.529332 C125.59878,100.529771 125.597901,100.53065 125.597462,100.53109 C125.43349,100.693687 125.266882,100.861118 125.102471,101.025034 L118.881675,94.8063507 C127.743595,85.9241501 135.391776,77.9823765 140.903495,68.8993465 C147.730062,57.6493795 150.218205,46.1985829 148.734551,32.8647353 L148.568381,31.3670834 L156.159414,38.9572956 C157.876057,40.673355 160.659612,40.6742339 162.376694,38.9581745 C164.093776,37.242115 164.094216,34.459506 162.377573,32.7425677 L145.926378,16.2921276 C144.208857,14.5747498 144.208417,11.7969747 145.926378,10.0791575 C147.64434,8.36177973 150.423498,8.36177973 152.141899,10.0791575 L209.916923,67.8349941 C211.635763,69.5528114 211.635763,72.3310259 209.917802,74.0484037 Z" id="Shape"></path>
                        <path d="M114.996446,203.996453 C115.005251,204.005242 115.006572,204.00656 114.996446,203.996453 L114.996446,203.996453 Z" id="Path"></path>
                        <path d="M174.683363,45.3163487 C172.923797,43.5612171 170.07474,43.5612171 168.319674,45.3163487 C166.560109,47.0759807 166.560109,49.9251444 168.319674,51.680276 C170.07474,53.439908 172.923797,53.439908 174.683363,51.680276 C176.438879,49.9251444 176.438879,47.0764307 174.683363,45.3163487 Z" id="Path"></path>
                    </g>
                </g>
            </g>
        </g>
    </g>
</svg>